HIERARCHY
ROOT Hips
{
	OFFSET 0.000000 0.000000 0.000000
	CHANNELS 6 Xposition Yposition Zposition Xrotation Yrotation Zrotation
	JOINT LeftUpLeg_virtual
	{
		OFFSET 0.000000 0.000000 0.000000
		CHANNELS 3 Xrotation Yrotation Zrotation
		JOINT LeftUpLeg
		{
			OFFSET 11.394100 -6.187798 -0.413800
			CHANNELS 3 Xrotation Yrotation Zrotation
			JOINT LeftLeg
			{
				OFFSET 0.430247 -32.302673 3.732800
				CHANNELS 3 Xrotation Yrotation Zrotation
				JOINT LeftFoot
				{
					OFFSET -0.430247 -48.264931 -6.423300
					CHANNELS 3 Xrotation Yrotation Zrotation
					JOINT LeftToeBase
					{
						OFFSET 4.230900 -16.068199 23.438400
						CHANNELS 3 Xrotation Yrotation Zrotation
						JOINT LeftToe_End
						{
							OFFSET 4.510700 0.695400 19.974600
							CHANNELS 3 Xrotation Yrotation Zrotation
							End Site
							{
								OFFSET 0 0 0
							}
						}
					}
				}
			}
		}
	}
	JOINT RightUpLeg_virtual
	{
		OFFSET 0.000000 0.000000 0.000000
		CHANNELS 3 Xrotation Yrotation Zrotation
		JOINT RightUpLeg
		{
			OFFSET -11.333700 -6.187798 -0.413800
			CHANNELS 3 Xrotation Yrotation Zrotation
			JOINT RightLeg
			{
				OFFSET -0.430392 -32.302628 3.733000
				CHANNELS 3 Xrotation Yrotation Zrotation
				JOINT RightFoot
				{
					OFFSET 0.430392 -48.264973 -6.423500
					CHANNELS 3 Xrotation Yrotation Zrotation
					JOINT RightToeBase
					{
						OFFSET -4.230900 -16.068199 23.438400
						CHANNELS 3 Xrotation Yrotation Zrotation
						JOINT RightToe_End
						{
							OFFSET -4.510700 0.695400 19.974600
							CHANNELS 3 Xrotation Yrotation Zrotation
							End Site
							{
								OFFSET 0 0 0
							}
						}
					}
				}
			}
		}
	}
	JOINT Spine_virtual
	{
		OFFSET 0.000000 0.000000 0.000000
		CHANNELS 3 Xrotation Yrotation Zrotation
		JOINT Spine
		{
			OFFSET -0.002400 12.777504 0.315300
			CHANNELS 3 Xrotation Yrotation Zrotation
			JOINT Spine1
			{
				OFFSET -0.002067 5.816869 0.032633
				CHANNELS 3 Xrotation Yrotation Zrotation
				JOINT Spine1_split
				{
					OFFSET -0.002067 5.816869 0.032633
					CHANNELS 3 Xrotation Yrotation Zrotation
					JOINT Spine2
					{
						OFFSET -0.002067 5.816869 0.032633
						CHANNELS 3 Xrotation Yrotation Zrotation
						JOINT Neck_virtual
						{
							OFFSET 0.000000 0.000000 0.000000
							CHANNELS 3 Xrotation Yrotation Zrotation
							JOINT Neck
							{
								OFFSET -0.003700 21.199493 -0.826900
								CHANNELS 3 Xrotation Yrotation Zrotation
								JOINT Head
								{
									OFFSET 0.000000 20.442200 4.834800
									CHANNELS 3 Xrotation Yrotation Zrotation
									JOINT HeadTop_End
									{
										OFFSET 0.000000 34.668396 4.968400
										CHANNELS 3 Xrotation Yrotation Zrotation
										End Site
										{
											OFFSET 0 0 0
										}
									}
								}
							}
						}
						JOINT LeftShoulder_virtual
						{
							OFFSET 0.000000 0.000000 0.000000
							CHANNELS 3 Xrotation Yrotation Zrotation
							JOINT LeftShoulder
							{
								OFFSET 3.288150 8.794197 -1.372250
								CHANNELS 3 Xrotation Yrotation Zrotation
								JOINT LeftShoulder_split
								{
									OFFSET 3.288150 8.794197 -1.372250
									CHANNELS 3 Xrotation Yrotation Zrotation
									JOINT LeftArm
									{
										OFFSET 11.953299 -2.279007 -0.146200
										CHANNELS 3 Xrotation Yrotation Zrotation
										JOINT LeftForeArm
										{
											OFFSET 18.448900 0.000000 0.000000
											CHANNELS 3 Xrotation Yrotation Zrotation
											JOINT LeftHand
											{
												OFFSET 29.527798 0.000000 0.000000
												CHANNELS 3 Xrotation Yrotation Zrotation
												End Site
												{
													OFFSET 0 0 0
												}
											}
										}
									}
								}
							}
						}
						JOINT RightShoulder_virtual
						{
							OFFSET 0.000000 0.000000 0.000000
							CHANNELS 3 Xrotation Yrotation Zrotation
							JOINT RightShoulder
							{
								OFFSET -3.249400 8.794197 -1.372250
								CHANNELS 3 Xrotation Yrotation Zrotation
								JOINT RightShoulder_split
								{
									OFFSET -3.249400 8.794197 -1.372250
									CHANNELS 3 Xrotation Yrotation Zrotation
									JOINT RightArm
									{
										OFFSET -11.953299 -2.279007 -0.146200
										CHANNELS 3 Xrotation Yrotation Zrotation
										JOINT RightForeArm
										{
											OFFSET -18.448900 0.000000 0.000000
											CHANNELS 3 Xrotation Yrotation Zrotation
											JOINT RightHand
											{
												OFFSET -29.527802 0.000000 0.000000
												CHANNELS 3 Xrotation Yrotation Zrotation
												End Site
												{
													OFFSET 0 0 0
												}
											}
										}
									}
								}
							}
						}
					}
				}
			}
		}
	}
}
MOTION
Frames: 8
Frame Time: 0.03333333
0.548238 101.033531 -1.047367 0.000000 0.000000 0.000000 2.912639 -28.992726 1.099237 -17.580219 18.045973 11.713859 15.585001 13.145455 -1.046562 -0.203779 -4.070763 -5.306715 -0.145176 0.008040 -0.311794 0.000000 0.000000 0.000000 2.912639 -28.992726 1.099237 -8.752697 -1.427054 -9.027261 10.740447 9.472815 0.841378 -5.317905 -0.876912 7.447442 -1.288159 -0.016765 0.150244 0.000000 0.000000 0.000000 2.912639 -28.992726 1.099237 7.836536 -0.348179 -2.592251 1.099246 -0.880572 2.383464 0.000000 0.000000 0.000000 0.000000 0.000000 0.000000 1.108681 -0.590433 2.446367 -3.841827 18.019038 -6.496411 -6.332735 13.021624 0.301452 0.000000 0.000000 0.000000 1.108681 -0.590433 2.446367 -0.057080 -8.759453 -0.061262 0.000000 0.000000 0.000000 -55.250776 0.329461 -41.449392 11.584456 -65.827328 13.005568 0.000000 0.000000 0.000000 1.108681 -0.590433 2.446367 4.849287 7.760153 5.560464 0.000000 0.000000 0.000000 -0.933496 -2.176888 61.845642 11.299289 18.943446 -3.987591 0.000000 0.000000 0.000000 
0.686828 100.970978 -1.121002 0.000000 0.000000 0.000000 2.891729 -29.198683 1.138339 -17.793088 18.035917 11.681283 15.934941 13.108739 -1.044784 -0.310198 -3.849726 -5.264846 -0.145191 0.008045 -0.311792 0.000000 0.000000 0.000000 2.891729 -29.198683 1.138339 -9.132224 -1.310092 -9.153012 11.166462 9.295572 0.827542 -5.364775 -0.534940 7.553395 -1.288170 -0.016761 0.150242 0.000000 0.000000 0.000000 2.891729 -29.198683 1.138339 8.055127 -0.306122 -2.482677 1.045027 -0.814359 2.320276 0.000000 0.000000 0.000000 0.000000 0.000000 0.000000 1.051740 -0.537255 2.372764 -3.859430 18.003588 -6.653440 -6.291793 12.928293 0.401020 0.000000 0.000000 0.000000 1.051740 -0.537255 2.372764 -0.056866 -8.756187 -0.061013 0.000000 0.000000 0.000000 -55.279084 0.492941 -41.432190 11.415603 -65.915786 12.820414 0.000000 0.000000 0.000000 1.051740 -0.537255 2.372764 4.899521 7.770202 4.883303 0.000000 0.000000 0.000000 -2.486732 -5.619530 62.291769 11.240943 19.305405 -3.821068 0.000000 0.000000 0.000000 
0.917971 100.814407 -1.210766 0.000000 0.000000 0.000000 2.905164 -29.655206 1.322677 -18.237232 18.030490 11.533997 16.707877 13.024201 -0.991986 -0.595289 -3.316529 -5.248582 -0.145177 0.008040 -0.311791 0.000000 0.000000 0.000000 2.905164 -29.655206 1.322677 -10.050725 -1.023711 -9.488366 12.269064 8.741922 0.783962 -5.600473 0.380030 7.791512 -1.288161 -0.016758 0.150240 0.000000 0.000000 0.000000 2.905164 -29.655206 1.322677 8.505810 -0.253665 -2.296683 0.868402 -0.696430 2.129975 0.000000 0.000000 0.000000 0.000000 0.000000 0.000000 0.870421 -0.455849 2.163772 -3.853842 18.093890 -6.945735 -6.188456 12.866630 0.625713 0.000000 0.000000 0.000000 0.870421 -0.455849 2.163772 -0.049763 -8.608677 -0.060882 0.000000 0.000000 0.000000 -55.187987 0.666064 -41.372529 11.060943 -66.061986 12.423051 0.000000 0.000000 0.000000 0.870421 -0.455849 2.163772 4.926553 8.143905 4.272907 0.000000 0.000000 0.000000 -3.433656 -9.791456 62.874227 10.500005 20.433553 -2.575350 0.000000 0.000000 0.000000 
1.424051 100.403030 -1.327221 0.000000 0.000000 0.000000 3.046322 -30.659462 1.756072 -19.467701 17.935595 11.316954 18.757335 13.407732 -0.875177 -1.398182 -2.659277 -5.312276 -0.145175 0.008049 -0.311791 0.000000 0.000000 0.000000 3.046322 -30.659462 1.756072 -12.194639 -0.476075 -10.121685 14.740300 10.416410 0.917201 -6.195744 -0.352278 7.723323 -1.288161 -0.016765 0.150249 0.000000 0.000000 0.000000 3.046322 -30.659462 1.756072 9.477536 -0.225258 -1.365674 0.523223 -0.455731 1.449048 0.000000 0.000000 0.000000 0.000000 0.000000 0.000000 0.525949 -0.337822 1.442913 -4.183529 18.476971 -8.056299 -6.109553 12.636689 1.124487 0.000000 0.000000 0.000000 0.525949 -0.337822 1.442913 -0.037776 -8.420980 -0.060919 0.000000 0.000000 0.000000 -54.622672 1.330425 -40.602804 9.694215 -66.760216 10.947722 0.000000 0.000000 0.000000 0.525949 -0.337822 1.442913 4.894751 8.134306 2.028113 0.000000 0.000000 0.000000 -2.356096 -14.349259 65.757947 8.410249 23.219336 0.980603 0.000000 0.000000 0.000000 
2.202428 99.778923 -1.456779 0.000000 0.000000 0.000000 3.295795 -32.105393 2.282728 -21.358406 17.748223 11.224535 21.820591 14.342596 -0.846630 -2.592245 -2.088838 -5.387821 -0.145174 0.008035 -0.311792 0.000000 0.000000 0.000000 3.295795 -32.105393 2.282728 -15.095201 0.227995 -10.951079 17.902401 11.288598 0.981107 -6.878660 0.213801 7.989697 -1.288153 -0.016744 0.150241 0.000000 0.000000 0.000000 3.295795 -32.105393 2.282728 10.880644 -0.233842 0.381577 0.179504 -0.130448 0.341486 0.000000 0.000000 0.000000 0.000000 0.000000 0.000000 0.192468 -0.215174 0.281750 -4.675730 19.169027 -9.928675 -6.665292 12.428724 1.259351 0.000000 0.000000 0.000000 0.192468 -0.215174 0.281750 -0.014241 -8.383942 -0.055467 0.000000 0.000000 0.000000 -53.194449 2.464974 -38.334464 5.665294 -68.305054 6.743186 0.000000 0.000000 0.000000 0.192468 -0.215174 0.281750 4.824992 7.222741 -2.127287 0.000000 0.000000 0.000000 0.929634 -18.378516 71.644982 6.500291 27.064561 4.773356 0.000000 0.000000 0.000000 
3.417611 98.867111 -1.575848 0.000000 0.000000 0.000000 3.606942 -34.363727 2.853542 -23.955265 17.486606 11.306945 26.124019 16.346861 -0.913537 -4.281572 -1.785387 -5.557542 -0.145154 0.008082 -0.311790 0.000000 0.000000 0.000000 3.606942 -34.363727 2.853542 -18.847688 1.126254 -11.943424 21.642095 12.753605 1.094517 -7.480747 1.106179 8.411346 -1.288146 -0.016770 0.150242 0.000000 0.000000 0.000000 3.606942 -34.363727 2.853542 12.811113 -0.271029 2.758226 0.159129 0.223882 -1.040918 0.000000 0.000000 0.000000 0.000000 0.000000 0.000000 0.196301 -0.134740 -1.153322 -4.885784 20.070031 -12.326602 -9.355769 12.649208 -0.198107 0.000000 0.000000 0.000000 0.196301 -0.134740 -1.153322 -0.017914 -8.597620 -0.068376 0.000000 0.000000 0.000000 -51.163687 4.637910 -33.588845 -5.232975 -71.442467 -4.517172 0.000000 0.000000 0.000000 0.196301 -0.134740 -1.153322 4.712379 5.394187 -7.849000 0.000000 0.000000 0.000000 6.653779 -20.008790 79.987341 7.172236 31.601537 4.602523 0.000000 0.000000 0.000000 
4.958796 97.679855 -1.689636 0.000000 0.000000 0.000000 3.932890 -37.467648 3.474704 -28.560947 14.133688 12.350275 33.846832 10.548445 -1.817581 -5.714822 -2.381477 -5.163871 -3.143166 0.107050 -0.763767 0.000000 0.000000 0.000000 3.932890 -37.467648 3.474704 -23.270682 2.210718 -12.954424 25.675135 14.794813 1.262114 -7.863699 2.378692 8.893975 -1.288160 -0.016770 0.150244 0.000000 0.000000 0.000000 3.932890 -37.467648 3.474704 15.025361 -0.189881 4.656809 0.502294 0.529677 -2.129072 0.000000 0.000000 0.000000 0.000000 0.000000 0.000000 0.561195 -0.069948 -2.283498 -4.645102 20.139397 -13.901863 -13.436667 12.876746 -2.653736 0.000000 0.000000 0.000000 0.561195 -0.069948 -2.283498 -0.014497 -8.891802 -0.114479 0.000000 0.000000 0.000000 -50.221817 7.282390 -27.523219 -27.022556 -73.931320 -27.003926 0.000000 0.000000 0.000000 0.561195 -0.069948 -2.283498 4.726281 4.895498 -13.135001 0.000000 0.000000 0.000000 12.620484 -19.056959 87.000204 7.764495 36.263202 1.946970 0.000000 0.000000 0.000000 
6.872556 96.396973 -1.804016 0.000000 0.000000 0.000000 4.333250 -41.723262 4.121813 -30.673813 7.893615 11.214560 38.582120 3.802649 -2.589037 -7.686761 -2.762731 -5.326862 -4.296419 0.135596 -0.933810 0.000000 0.000000 0.000000 4.333250 -41.723262 4.121813 -27.947855 3.369444 -13.718716 28.925032 17.448459 1.485072 -7.471916 4.195071 9.496493 -1.288158 -0.016767 0.150243 0.000000 0.000000 0.000000 4.333250 -41.723262 4.121813 17.512192 0.117490 5.574626 0.981971 0.802161 -2.603019 0.000000 0.000000 0.000000 0.000000 0.000000 0.000000 1.057962 0.077534 -2.804374 -4.206115 17.956567 -13.653091 -17.714423 11.651073 -4.545409 0.000000 0.000000 0.000000 1.057962 0.077534 -2.804374 -0.087326 -9.118853 -0.130246 0.000000 0.000000 0.000000 -51.016944 9.082207 -21.925746 -51.864044 -73.222135 -53.015297 0.000000 0.000000 0.000000 1.057962 0.077534 -2.804374 4.984228 5.815417 -16.445610 0.000000 0.000000 0.000000 18.948085 -15.832824 90.824748 6.734161 40.912751 -1.094391 0.000000 0.000000 0.000000 
